<svg xmlns="http://www.w3.org/2000/svg" width="1200" height="900" viewBox="0 0 1200 900" fill="none">
  <rect width="1200" height="900" fill="#EFEDE4"/>
  <path d="M0 250C150 170 280 180 420 250C560 320 690 330 830 250C970 170 1050 170 1200 250V900H0V250Z" fill="#E7E4DA"/>
  <path d="M0 390C180 300 300 320 460 390C620 460 760 470 920 390C1080 310 1130 310 1200 360V900H0V390Z" fill="#DDD9CC"/>
  <path d="M0 520C120 460 290 460 470 520C650 580 810 580 980 520C1080 480 1140 480 1200 510V900H0V520Z" fill="#D2CEC0"/>
</svg>
